# xmcd
# 
# Track frame offsets:
#     150
#     12435
#     27475
#     45000
#     61950
#     77757
#     92087
#     104625
#     118862
#     134800
# 
# Disc length: 2008
# 
# Revision: 2
# Processed by: cddbd v1.5.2PL0 Copyright (c) Steve Scherf et al.
# Submitted via: BonkEnc v1.0.5
# 
DISCID=8507d60a
DTITLE=Various Artist - Country Love Songs Volume 1
DYEAR=0
DGENRE=Country
TTITLE0=New Way (To Light Up An Old Flame)
TTITLE1=After The Lights Go Out
TTITLE2=Same Ol' Love
TTITLE3=I Got You
TTITLE4=New Fool At An Old Game
TTITLE5=Walk On Faith
TTITLE6=Fortune Smiled On Me
TTITLE7=If Only You Knew
TTITLE8=I Got A Love
TTITLE9=I Never Knew Love
EXTD=
EXTT0=
EXTT1=
EXTT2=
EXTT3=
EXTT4=
EXTT5=
EXTT6=
EXTT7=
EXTT8=
EXTT9=
PLAYORDER=
